<?xml version="1.0" encoding="utf-8"?>
<!-- Generator: Adobe Illustrator 22.0.1, SVG Export Plug-In . SVG Version: 6.00 Build 0)  -->
<svg version="1.1" id="Layer_1" xmlns="http://www.w3.org/2000/svg" xmlns:xlink="http://www.w3.org/1999/xlink" x="0px" y="0px"
	 viewBox="0 0 1920 240" style="enable-background:new 0 0 1920 240;" xml:space="preserve">
<style type="text/css">
	.st0{clip-path:url(#SVGID_2_);}
	.st1{fill:#2F2F2F;}
</style>
<g>
	<defs>
		<rect id="SVGID_1_" width="1920" height="240"/>
	</defs>
	<clipPath id="SVGID_2_">
		<use xlink:href="#SVGID_1_"  style="overflow:visible;"/>
	</clipPath>
	<g class="st0">
		<path class="st1" d="M25.1282005,172.3070068l-0.9901009,1.7379913l0.0118999,0.0070038l0.0121002,0.0059967
			L25.1282005,172.3070068z M-7.8074002,140.0930023l-1.7202802,1.0200043l0.0053005,0.0089874L-7.8074002,140.0930023z
			 M-7.8074002,48.0172005l1.7150102,1.0289993l0.00525-0.0088997L-7.8074002,48.0172005z M25.1282005,15.8028002
			l0.9748001,1.7463999l0.0066986-0.0037994L25.1282005,15.8028002z M107.586998,11.2350998l-0.7969971,1.8340998
			l0.0159988,0.0069008l0.0159988,0.0066996L107.586998,11.2350998z M136.4360046,31.1886997l1.3990021,1.4294987
			l1.3909912-1.3606987l-1.321991-1.427599L136.4360046,31.1886997z M114.0780029,53.0657005l-1.4520035,1.3754997
			l1.3980026,1.4754982l1.4529953-1.4214973L114.0780029,53.0657005z M94.8459015,39.3624992l-0.8083038,1.8293991
			l0.0077057,0.0034027L94.0531006,41.1987L94.8459015,39.3624992z M41.4757996,42.2473984l0.9576988,1.7558022l0.0122032-0.0067024
			l0.0121002-0.0067978L41.4757996,42.2473984z M20.3201008,63.1627007l-1.7309017-1.0021019l-0.0056,0.0098L20.3201008,63.1627007z
			 M20.5604992,124.9469986l-1.7308998,1.0019989l0.0039005,0.0070038l0.0039005,0.0059967L20.5604992,124.9469986z
			 M41.7162018,145.8619995l-0.9820023,1.7429962l0.0186996,0.0100098L40.771801,147.625L41.7162018,145.8619995z
			 M110.4720001,138.8910065l-1.3379974-1.4869995L109.125,137.4120026l-0.0080032,0.0079956L110.4720001,138.8910065z
			 M118.887001,127.8320007l-1.7630005-0.9449997l0,0L118.887001,127.8320007z M124.1750031,113.1669998l1.9570007,0.4150009
			l0.5119934-2.4150009h-2.4689941V113.1669998z M70.0840988,113.1669998h-2v2h2V113.1669998z M70.0840988,85.5205002v-2h-2v2
			H70.0840988z M154.4669952,85.5205002l1.9400024-0.4850998l-0.3789978-1.5149002h-1.5610046V85.5205002z M150.8609924,132.3999939
			l-1.8819885-0.6790009l-0.0050049,0.0140076l-0.0050049,0.0139923L150.8609924,132.3999939z M135.2339935,158.1230011
			l-1.4449921-1.3820038l-0.0120087,0.0120087l-0.0119934,0.0139923L135.2339935,158.1230011z M107.3470001,177.3560028
			l0.737999,1.8580017l0.012001-0.0039978l0.012001-0.0050049L107.3470001,177.3560028z M70.8052979,181.845993
			c-16.1827965,0-31.0742989-3.7659912-44.7108994-11.2899933l-1.9323006,3.5019989
			c14.2503986,7.8619995,29.8103008,11.7879944,46.6431961,11.7879944V181.845993z M26.1182995,170.5690002
			C12.6339998,162.8860016,1.90492,152.3930054-6.0924101,139.0639954l-3.4299698,2.0579987
			c8.3502703,13.9170074,19.5782795,24.8990021,33.6604805,32.9230042L26.1182995,170.5690002z M-6.0871401,139.0720062
			C-14.0667,125.6169968-18.0681,110.586998-18.0681,93.9347h-4c0,17.3253021,4.1723995,33.0672989,12.5404396,47.1783066
			L-6.0871401,139.0720062z M-18.0681,93.9347c0-16.652298,4.0014-31.5979996,11.9756899-44.8885994l-3.4299698-2.0578995
			C-17.8957005,60.9436989-22.0681,76.6095963-22.0681,93.9347H-18.0681z M-6.0871401,49.0373001
			C1.90947,35.5527992,12.6328001,25.0674,26.1028996,17.5492001l-1.9493999-3.4927998
			C10.0571003,21.9241009-1.17667,32.9149017-9.5276604,46.9970016L-6.0871401,49.0373001z M26.1096992,17.5454006
			c13.634201-7.679081,28.5203018-11.5225306,44.6955986-11.5225306v-4c-16.8403969,0-32.4056969,4.00981-46.6585999,12.0372295
			L26.1096992,17.5454006z M70.8052979,6.0228701c13.2204056,0,25.2053986,2.3596897,35.9847031,7.0463295l1.5950012-3.6682892
			C97.0467987,4.4713001,84.5103989,2.0228701,70.8052979,2.0228701V6.0228701z M106.8219986,13.0827999
			c10.9599991,4.5407009,20.3349991,11.0282001,28.1469955,19.4647999l2.9350128-2.7176991
			c-8.2160034-8.8726006-18.0740051-15.6876011-29.5510101-20.4425621L106.8219986,13.0827999z M135.0370026,29.7591991
			L112.6800003,51.6362l2.7969971,2.8590012l22.3580093-21.8770027L135.0370026,29.7591991z M115.5299988,51.6902008
			c-5.9379959-6.2686005-12.5690002-11.0018005-19.8911972-14.1637993L94.0531006,41.1987
			c6.780899,2.9281998,12.9729004,7.3305016,18.5728989,13.2425003L115.5299988,51.6902008z M95.6542969,37.5331993
			c-7.198494-3.1806984-15.578598-4.7383995-25.0893936-4.7383995v4c9.0806961,0,16.8878937,1.4874992,23.4726944,4.3970985
			L95.6542969,37.5331993z M70.5649033,32.7947998c-10.9057045,0-20.9427032,2.5652008-30.0711021,7.7103004l1.9640007,3.4846001
			c8.5014-4.7915993,17.8570976-7.1949005,28.1071014-7.1949005V32.7947998z M40.5181007,40.4916
			C31.3645,45.4845009,24.0520992,52.7248993,18.5891991,62.1607018l3.4617004,2.0041008
			c5.1151009-8.8351021,11.9065018-15.5383034,20.3825989-20.161602L40.5181007,40.4916z M18.5835991,62.1703987
			C13.2628002,71.4817963,10.6271,82.088501,10.6271,93.9347h4c0-11.2328033,2.4929008-21.1407013,7.4295006-29.7797012
			L18.5835991,62.1703987z M10.6271,93.9347c0,11.8572998,2.7210999,22.5463028,8.2024994,32.0142975l3.4618015-2.0039978
			C17.1949005,115.1419983,14.6271,105.1559982,14.6271,93.9347H10.6271z M18.8374004,125.961998
			c5.4622002,9.2699966,12.7658997,16.4959946,21.8967991,21.6429977l1.9640007-3.4850006
			c-8.4987984-4.7899933-15.2989006-11.5069885-20.4146004-20.1879959L18.8374004,125.961998z M40.771801,147.625
			c9.2770996,4.9700012,19.3797989,7.4499969,30.2738991,7.4499969v-4c-10.2616005,0-19.7118988-2.3289948-28.3849983-6.9759979
			L40.771801,147.625z M71.0457001,155.0749969c16.4493027,0,30.1003036-4.8670044,40.7823029-14.7140045l-2.7110062-2.9409943
			c-9.8332977,9.0650024-22.4664001,13.6549988-38.0712967,13.6549988V155.0749969z M111.8099976,140.3769989
			c3.4060059-3.0650024,6.3450012-6.9449921,8.8390045-11.6009979l-3.5250015-1.8889999
			c-2.3150024,4.3199997-4.9840012,7.8120041-7.9899979,10.5170059L111.8099976,140.3769989z M120.6490021,128.776001
			c2.4990005-4.6640015,4.3239975-9.7320023,5.4830017-15.1940002l-3.913002-0.8300018
			c-1.0849991,5.1159973-2.7860031,9.8239975-5.0950012,14.1350021L120.6490021,128.776001z M124.1750031,111.1669998H70.0840988v4
			h54.0909042V111.1669998z M72.0840988,113.1669998V85.5205002h-4v27.6464996H72.0840988z M70.0840988,87.5205002h84.3828964v-4
			H70.0840988V87.5205002z M152.526001,86.0056c1.0749969,4.2994995,1.6230011,9.1811981,1.6230011,14.6604004h4
			c0-5.7396011-0.572998-10.9550018-1.7420044-15.6306L152.526001,86.0056z M154.1490021,100.6660004
			c0,11.1699982-1.7299957,21.5159988-5.1699982,31.0549927l3.7630005,1.3570099
			c3.6109924-10.0139999,5.4069977-20.8230057,5.4069977-32.4120026H154.1490021z M148.9689941,131.7489929
			c-3.272995,9.5070038-8.3309937,17.8310089-15.1799927,24.9920044l2.8899994,2.7649994
			c7.2550049-7.5849915,12.6139984-16.4100037,16.072998-26.4550018L148.9689941,131.7489929z M133.7649994,156.7669983
			c-7.487999,8.1110077-16.5390015,14.3580017-27.1790009,18.7389984l1.5230026,3.6990051
			c11.1559982-4.5940094,20.6969986-11.1690063,28.5949936-19.7250061L133.7649994,156.7669983z M106.6090012,175.496994
			c-10.6314011,4.2210083-22.5566025,6.348999-35.8037033,6.348999v4c13.6785049,0,26.1144028-2.197998,37.2797012-6.6319885
			L106.6090012,175.496994z M206.4640045,175.4320068l-1.0050049,1.7299957l0.0110016,0.0059967l0.0110016,0.0059967
			L206.4640045,175.4320068z M183.1439972,152.1130066l-1.7529907,0.9619904l0.0089874,0.0169983l0.0100098,0.0160065
			L183.1439972,152.1130066z M183.1439972,85.5205002l-1.7409973-0.9832001l-0.0059967,0.0106964l-0.0059967,0.0108032
			L183.1439972,85.5205002z M206.4640045,62.2010994l0.9830017,1.7416992l0.0109863-0.0060005l0.0100098-0.0060997
			L206.4640045,62.2010994z M274.0180054,62.2010994l-1.0039978,1.729599l0.0099792,0.0060997l0.0110168,0.0060005
			L274.0180054,62.2010994z M297.0969849,85.5205002l-1.7539978,0.9616013l0.006012,0.0107956l0.006012,0.0108032
			L297.0969849,85.5205002z M297.0969849,152.1130066l-1.7419739-0.9830017l-0.0050049,0.0090027L297.0969849,152.1130066z
			 M274.0180054,175.4320068l0.9830017,1.7419891l0.0109863-0.0059967l0.0100098-0.0059967L274.0180054,175.4320068z
			 M269.4500122,137.9290009l-1.7460022-0.9759979l0,0L269.4500122,137.9290009z M257.1889954,87.2033005l-0.9799805,1.7432022l0,0
			L257.1889954,87.2033005z M223.5330048,87.2033005l0.9799957,1.7432022l0,0L223.5330048,87.2033005z M211.0310059,99.7043991
			l-1.7230072-1.0139999l-0.0119934,0.019104l-0.0100098,0.0192947L211.0310059,99.7043991z M211.0310059,137.9290009
			l-1.7570038,0.9539948l0.0159912,0.0299988l0.0180054,0.0299988L211.0310059,137.9290009z M223.5330048,150.4299927
			l-0.9810028,1.7430115l0,0L223.5330048,150.4299927z M240.3609924,181.845993
			c-12.3549957,0-23.3089905-2.7329865-32.9139862-8.1549988l-1.9660034,3.4830017
			c10.2679901,5.7969971,21.9129944,8.6719971,34.8799896,8.6719971V181.845993z M207.4680023,173.7030029
			c-9.6390076-5.5970001-17.1580048-13.1200104-22.5890045-22.5850067l-3.4689941,1.9900055
			c5.7870026,10.0879974,13.8150024,18.1109924,24.048996,24.0540009L207.4680023,173.7030029z M184.897995,151.151001
			c-5.272995-9.6159973-7.927002-20.4190063-7.927002-32.4550018h-4c0,12.6470032,2.7950134,24.1210022,8.4200134,34.3789978
			L184.897995,151.151001z M176.970993,118.6959991c0-11.8700027,2.651001-22.5936966,7.927002-32.2138977l-3.5069885-1.9233017
			c-5.6230011,10.2534027-8.4200134,21.6472015-8.4200134,34.1371994H176.970993z M184.8860016,86.5037003
			c5.4299927-9.6195984,12.9409943-17.1305008,22.5610046-22.5609016l-1.9660034-3.4832993
			c-10.2539978,5.7885017-18.2900085,13.8238029-24.0780029,24.0778008L184.8860016,86.5037003z M207.4680023,63.9306984
			c9.6009979-5.5749969,20.5469971-8.3841972,32.8929901-8.3841972v-4c-12.9769897,0-24.6289978,2.9604988-34.9019928,8.9249992
			L207.4680023,63.9306984z M240.3609924,55.5465012c12.1800079,0,23.0469971,2.8069992,32.6530151,8.3841972l2.0079956-3.459198
			c-10.2680054-5.9622002-21.8390045-8.9249992-34.6610107-8.9249992V55.5465012z M273.0350037,63.9427986
			c9.6139832,5.4276009,17.0390015,12.9315987,22.3079834,22.5393028l3.507019-1.9233017
			c-5.6289978-10.2658005-13.5899963-18.3079987-23.848999-24.0993004L273.0350037,63.9427986z M295.355011,86.5037003
			c5.4289856,9.6165009,8.1559753,20.3322983,8.1559753,32.1922989h4c0-12.5009995-2.8819885-23.9017029-8.6729736-34.158699
			L295.355011,86.5037003z M303.5109863,118.6959991c0,12.026001-2.7289734,22.8209991-8.1559753,32.4340057l3.4830017,1.9659882
			c5.7929993-10.2609863,8.6729736-21.7429962,8.6729736-34.3999939H303.5109863z M295.3500061,151.1390076
			c-5.2690125,9.4539948-12.7019958,16.969986-22.3359985,22.5639954l2.0079956,3.4589996
			c10.2389832-5.9450073,18.1929932-13.9759979,23.821991-24.0749969L295.3500061,151.1390076z M273.0350037,173.6909943
			c-9.6090088,5.4240112-20.4840088,8.1549988-32.6740112,8.1549988v4c12.8120117,0,24.375-2.8769989,34.6400146-8.6719971
			L273.0350037,173.6909943z M240.3609924,156.7570038c6.4210052,0,12.3700104-1.5240021,17.809021-4.5839996l-1.9609985-3.4860077
			c-4.8190155,2.7100067-10.0890198,4.0700073-15.8480225,4.0700073V156.7570038z M258.1700134,152.1730042
			c5.4689941-3.076004,9.8129883-7.5180054,13.026001-13.2680054l-3.4920044-1.9519958
			c-2.8770142,5.1490021-6.7070007,9.0410004-11.4949951,11.7339935L258.1700134,152.1730042z M271.1960144,138.9049988
			c3.2399902-5.7980042,4.821991-12.5569992,4.821991-20.2089996h-4c0,7.0930023-1.4630127,13.1560059-4.3139954,18.2570038
			L271.1960144,138.9049988z M276.0180054,118.6959991c0-7.5-1.5859985-14.1760025-4.821991-19.9672012l-3.4920044,1.9512024
			c2.8540039,5.1080017,4.3139954,11.0920029,4.3139954,18.0159988H276.0180054z M271.1960144,98.7287979
			c-3.2130127-5.7501984-7.5570068-10.1921005-13.026001-13.2686005l-1.9609985,3.4863052
			c4.7879944,2.6931992,8.617981,6.5853958,11.4949951,11.7334976L271.1960144,98.7287979z M258.1700134,85.4601974
			c-5.4390106-3.0592957-11.3880157-4.584198-17.809021-4.584198v4c5.7590027,0,11.029007,1.3600006,15.8480225,4.0705032
			L258.1700134,85.4601974z M240.3609924,80.8759995c-6.42099,0-12.3699951,1.5249023-17.8089905,4.584198l1.9609985,3.4863052
			c4.8190002-2.7105026,10.0890045-4.0705032,15.8479919-4.0705032V80.8759995z M222.552002,85.4601974
			c-5.4589996,3.0708008-9.8740082,7.5-13.2440033,13.2302017l3.4470062,2.0276031
			c3.0399933-5.1678009,6.9599915-9.0727005,11.7579956-11.7714996L222.552002,85.4601974z M209.2859955,98.7287979
			c-3.2369995,5.7911987-4.821991,12.4672012-4.821991,19.9672012h4c0-6.923996,1.4589996-12.9079971,4.3129883-18.0159988
			L209.2859955,98.7287979z M204.4640045,118.6959991c0,7.5019989,1.5859985,14.2480011,4.8099976,20.1869965l3.5149994-1.9079895
			c-2.8659973-5.2799988-4.3249969-11.3560028-4.3249969-18.279007H204.4640045z M209.3079987,138.9429932
			c3.3699951,5.730011,7.7850037,10.1590118,13.2440033,13.230011l1.9609985-3.4860077
			c-4.7980042-2.6989899-8.7180023-6.6040039-11.7579956-11.7720032L209.3079987,138.9429932z M222.552002,152.1730042
			c5.4389954,3.0599976,11.3880005,4.5839996,17.8089905,4.5839996v-4c-5.7589874,0-11.0289917-1.3600006-15.8479919-4.0700073
			L222.552002,152.1730042z M354.3699951,175.4320068l-1.0050049,1.7299957l0.0110168,0.0059967l0.0109863,0.0059967
			L354.3699951,175.4320068z M331.0499878,152.1130066l-1.7529907,0.9619904l0.0090027,0.0169983l0.0100098,0.0160065
			L331.0499878,152.1130066z M331.0499878,85.5205002l-1.7409973-0.9832001l-0.0059814,0.0106964l-0.006012,0.0108032
			L331.0499878,85.5205002z M354.3699951,62.2010994l0.9830017,1.7416992l0.0100098-0.0060005l0.0109863-0.0060997
			L354.3699951,62.2010994z M421.9240112,62.2010994l-1.0050049,1.729599l0.0109863,0.0060997l0.0110168,0.0060005
			L421.9240112,62.2010994z M445.0029907,85.5205002l-1.7539978,0.9616013l0.006012,0.0107956l0.0059814,0.0108032
			L445.0029907,85.5205002z M445.0029907,152.1130066l-1.7420044-0.9830017l-0.0049744,0.0090027L445.0029907,152.1130066z
			 M421.9240112,175.4320068l0.9830017,1.7419891l0.0109863-0.0059967l0.0100098-0.0059967L421.9240112,175.4320068z
			 M417.3559875,137.9290009l-1.7460022-0.9759979l0,0L417.3559875,137.9290009z M405.0950012,87.2033005l-0.980011,1.7432022l0,0
			L405.0950012,87.2033005z M371.4389954,87.2033005l0.980011,1.7432022l0,0L371.4389954,87.2033005z M358.9370117,99.7043991
			l-1.7230225-1.0139999l-0.0119934,0.019104l-0.0100098,0.0192947L358.9370117,99.7043991z M358.9370117,137.9290009
			l-1.757019,0.9539948l0.0160217,0.0299988l0.0179749,0.0299988L358.9370117,137.9290009z M371.4389954,150.4299927
			l-0.9809875,1.7430115l0,0L371.4389954,150.4299927z M388.2669983,181.845993
			c-12.3559875,0-23.3089905-2.7329865-32.9140015-8.1549988l-1.9660034,3.4830017
			c10.2680054,5.7969971,21.9129944,8.6719971,34.8800049,8.6719971V181.845993z M355.3739929,173.7030029
			c-9.6390076-5.5970001-17.1579895-13.1200104-22.5889893-22.5850067l-3.4689941,1.9900055
			c5.7869873,10.0879974,13.8150024,18.1109924,24.0489807,24.0540009L355.3739929,173.7030029z M332.8039856,151.151001
			c-5.2729797-9.6159973-7.9269714-20.4190063-7.9269714-32.4550018h-4c0,12.6470032,2.7949829,24.1210022,8.4199829,34.3789978
			L332.8039856,151.151001z M324.8770142,118.6959991c0-11.8700027,2.651001-22.5936966,7.9269714-32.2138977l-3.5069885-1.9233017
			c-5.6229858,10.2534027-8.4199829,21.6472015-8.4199829,34.1371994H324.8770142z M332.7919922,86.5037003
			c5.4299927-9.6195984,12.9410095-17.1305008,22.5610046-22.5609016l-1.9660034-3.4832993
			c-10.2539978,5.7885017-18.2900085,13.8238029-24.0780029,24.0778008L332.7919922,86.5037003z M355.3739929,63.9306984
			c9.6010132-5.5749969,20.5469971-8.3841972,32.8930054-8.3841972v-4c-12.9769897,0-24.6289978,2.9604988-34.9020081,8.9249992
			L355.3739929,63.9306984z M388.2669983,55.5465012c12.1799927,0,23.0469971,2.8069992,32.6520081,8.3841972l2.0090027-3.459198
			c-10.2680054-5.9622002-21.8390198-8.9249992-34.6610107-8.9249992V55.5465012z M420.9410095,63.9427986
			c9.6139832,5.4276009,17.0390015,12.9315987,22.3079834,22.5393028l3.507019-1.9233017
			c-5.6289978-10.2658005-13.5900269-18.3079987-23.848999-24.0993004L420.9410095,63.9427986z M443.2609863,86.5037003
			c5.4290161,9.6165009,8.1560059,20.3322983,8.1560059,32.1922989h4c0-12.5009995-2.8819885-23.9017029-8.6730042-34.158699
			L443.2609863,86.5037003z M451.4169922,118.6959991c0,12.026001-2.7290039,22.8209991-8.1560059,32.4340057l3.4830017,1.9659882
			c5.7929993-10.2609863,8.6730042-21.7429962,8.6730042-34.3999939H451.4169922z M443.256012,151.1390076
			c-5.2690125,9.4539948-12.7020264,16.969986-22.3370056,22.5639954l2.0090027,3.4589996
			c10.2389832-5.9450073,18.1929932-13.9759979,23.821991-24.0749969L443.256012,151.1390076z M420.9410095,173.6909943
			c-9.6090088,5.4240112-20.4840088,8.1549988-32.6740112,8.1549988v4c12.8120117,0,24.375-2.8769989,34.6400146-8.6719971
			L420.9410095,173.6909943z M388.2669983,156.7570038c6.42099,0,12.3699951-1.5240021,17.8089905-4.5839996l-1.9609985-3.4860077
			c-4.8190002,2.7100067-10.0889893,4.0700073-15.8479919,4.0700073V156.7570038z M406.0759888,152.1730042
			c5.4690247-3.076004,9.8130188-7.5180054,13.026001-13.2680054l-3.4920044-1.9519958
			c-2.8769836,5.1490021-6.7069702,9.0410004-11.4949951,11.7339935L406.0759888,152.1730042z M419.1019897,138.9049988
			c3.2400208-5.7980042,4.8220215-12.5569992,4.8220215-20.2089996h-4c0,7.0930023-1.4630127,13.1560059-4.3140259,18.2570038
			L419.1019897,138.9049988z M423.9240112,118.6959991c0-7.5-1.5859985-14.1760025-4.8220215-19.9672012l-3.4920044,1.9512024
			c2.8540039,5.1080017,4.3140259,11.0920029,4.3140259,18.0159988H423.9240112z M419.1019897,98.7287979
			c-3.2129822-5.7501984-7.5569763-10.1921005-13.026001-13.2686005l-1.9609985,3.4863052
			c4.7880249,2.6931992,8.6180115,6.5853958,11.4949951,11.7334976L419.1019897,98.7287979z M406.0759888,85.4601974
			c-5.4389954-3.0592957-11.3880005-4.584198-17.8089905-4.584198v4c5.7590027,0,11.0289917,1.3600006,15.8479919,4.0705032
			L406.0759888,85.4601974z M388.2669983,80.8759995c-6.42099,0-12.3699951,1.5249023-17.8089905,4.584198l1.9609985,3.4863052
			c4.8190002-2.7105026,10.0889893-4.0705032,15.8479919-4.0705032V80.8759995z M370.4580078,85.4601974
			c-5.4590149,3.0708008-9.8739929,7.5-13.2440186,13.2302017l3.4470215,2.0276031
			c3.039978-5.1678009,6.9599915-9.0727005,11.7579956-11.7714996L370.4580078,85.4601974z M357.1919861,98.7287979
			c-3.2369995,5.7911987-4.821991,12.4672012-4.821991,19.9672012h4c0-6.923996,1.4590149-12.9079971,4.3130188-18.0159988
			L357.1919861,98.7287979z M352.3699951,118.6959991c0,7.5019989,1.5859985,14.2480011,4.8099976,20.1869965l3.5150146-1.9079895
			c-2.8659973-5.2799988-4.3250122-11.3560028-4.3250122-18.279007H352.3699951z M357.2139893,138.9429932
			c3.3700256,5.730011,7.7850037,10.1590118,13.2440186,13.230011l1.9609985-3.4860077
			c-4.7980042-2.6989899-8.7180176-6.6040039-11.7579956-11.7720032L357.2139893,138.9429932z M370.4580078,152.1730042
			c5.4389954,3.0599976,11.3880005,4.5839996,17.8089905,4.5839996v-4c-5.7590027,0-11.0289917-1.3600006-15.8479919-4.0700073
			L370.4580078,152.1730042z M495.3039856,225.1959991l1.1330261-1.647995l-0.0090027-0.0059967l-0.0090027-0.006012
			L495.3039856,225.1959991z M474.6289978,200.1940002l-0.7529907-1.8529968l-1.7799988,0.723999l0.6519775,1.8079987
			L474.6289978,200.1940002z M504.1990051,188.173996l1.8429871-0.776001l-0.7659912-1.8209991l-1.8299866,0.7440033
			L504.1990051,188.173996z M557.5689697,198.7519989l-1.4329834-1.3959961l-0.0089722,0.0099945l-0.0100098,0.0100098
			L557.5689697,198.7519989z M566.4639893,163.1719971h2v-2h-2V163.1719971z M564.5410156,163.1719971v-2h-1.0360107
			l-0.5980225,0.8460083L564.5410156,163.1719971z M499.631012,172.3070068l-1.0429993,1.7070007l0.0189819,0.0109863
			l0.0180054,0.0110016L499.631012,172.3070068z M478.7160034,150.1900024l-1.7520142,0.9640045l0.0030212,0.0059967
			l0.0029907,0.0059967L478.7160034,150.1900024z M478.7160034,83.5971985l1.7449951,0.9763031l0.0039978-0.0062027
			l0.0029907-0.0062027L478.7160034,83.5971985z M499.631012,61.4799004l1.019989,1.7206001l0.0090027-0.0056L499.631012,61.4799004
			z M549.3950195,57.8737984l0.8379517-1.8158989L549.3950195,57.8737984z M564.5410156,70.3749008l-1.6340332,1.1533966
			l0.5980225,0.8466034h1.0360107V70.3749008z M566.4639893,70.3749008v2h2v-2H566.4639893z M566.4639893,57.3930016v-2h-2v2
			H566.4639893z M596.7550049,57.3930016h2v-2h-2V57.3930016z M589.0620117,205.7230072l-1.7640381-0.9410095l0,0
			L589.0620117,205.7230072z M567.1849976,227.8410034l-0.9530029-1.7580109l-0.0120239,0.006012l-0.0109863,0.0059967
			L567.1849976,227.8410034z M557.0880127,142.2559967l1.3959961,1.4329987l0.0089722-0.0090027l0.0090332-0.0099945
			L557.0880127,142.2559967z M557.0880127,91.2901993l-1.4140015,1.4141998l0.0189819,0.0186005l0.0189819,0.0180969
			L557.0880127,91.2901993z M511.6520081,91.2901993l1.394989,1.4325027l0,0L511.6520081,91.2901993z M511.6520081,142.2559967
			l1.394989-1.4319916l0,0L511.6520081,142.2559967z M534.0089722,233.7740021
			c-15.242981,0-27.7229614-3.4539948-37.5719604-10.2259979l-2.2660217,3.29599
			c10.6650085,7.3330078,23.9889832,10.9300079,39.8379822,10.9300079V233.7740021z M496.4190063,223.5359955
			c-9.9720154-6.6999969-16.553009-14.7159882-19.9089966-24.019989l-3.7620239,1.3569946
			c3.6960144,10.2480011,10.8990173,18.901001,21.4410095,25.9830017L496.4190063,223.5359955z M475.3819885,202.0469971
			l29.5700073-12.0200043l-1.5059814-3.7059937l-29.5700073,12.0200043L475.3819885,202.0469971z M502.3559875,188.9499969
			c2.710022,6.4369965,6.8850098,11.5599976,12.513031,15.3119965l2.2189941-3.3279877
			c-4.9490356-3.2990112-8.6270142-7.7920074-11.0460205-13.5360107L502.3559875,188.9499969z M514.8690186,204.2619934
			c5.6380005,3.7580109,12.0390015,5.625,19.1399536,5.625v-4c-6.3609619,0-11.9799805-1.6589966-16.9209595-4.9529877
			L514.8690186,204.2619934z M534.0089722,209.8869934c10.3760376,0,18.7950439-3.197998,25.0120239-9.7599945l-2.9039917-2.7509918
			c-5.3220215,5.618988-12.6099854,8.5109863-22.1080322,8.5109863V209.8869934z M559.0020142,200.1470032
			c6.3980103-6.5709991,9.4619751-15.7910004,9.4619751-27.3590088h-4c0,10.8700104-2.8659668,18.9589996-8.3280029,24.5680084
			L559.0020142,200.1470032z M568.4639893,172.7879944v-9.6159973h-4v9.6159973H568.4639893z M566.4639893,161.1719971h-1.9229736v4
			h1.9229736V161.1719971z M562.9069824,162.0180054c-3.6369629,5.1529999-8.4069824,9.095993-14.3499756,11.8389893
			l1.6759644,3.6320038c6.559021-3.0269928,11.8860474-7.4179993,15.9420166-13.1640015L562.9069824,162.0180054z
			 M548.5570068,173.8569946C542.6090088,176.602005,535.7700195,178,527.9990234,178v4
			c8.2559814,0,15.6809692-1.4869995,22.2339478-4.5110016L548.5570068,173.8569946z M527.9990234,178
			c-9.7400513,0-18.8490295-2.4689941-27.36203-7.4219971L498.625,174.0359955
			C507.7430115,179.3399963,517.5449829,182,527.9990234,182V178z M500.6740112,170.6000061
			c-8.3410034-5.0970001-15.07901-12.2089996-20.2130127-21.3870087l-3.4909973,1.9530029
			c5.4450073,9.7350006,12.651001,17.3670044,21.6180115,22.8480072L500.6740112,170.6000061z M480.4679871,149.2259979
			c-5.1029968-9.2779999-7.6849976-20.076004-7.6849976-32.4529953h-4c0,12.9459915,2.7060242,24.4260025,8.1809998,34.3810043
			L480.4679871,149.2259979z M472.7829895,116.7730026c0-12.3769989,2.5830078-23.0886993,7.678009-32.199501l-3.4909973-1.9525986
			c-5.4819946,9.8011932-8.1870117,21.2070999-8.1870117,34.1520996H472.7829895z M480.4679871,84.5610962
			c5.1330261-9.3323975,11.8630066-16.4305954,20.1830139-21.3605957l-2.0390015-3.4412003
			c-8.9899902,5.327301-16.2030029,12.973999-21.6480103,22.8740997L480.4679871,84.5610962z M500.6600037,63.1949005
			c8.5100098-5.105999,17.6109924-7.6483994,27.3390198-7.6483994v-4c-10.4660034,0-20.2770386,2.7464981-29.3970337,8.218399
			L500.6600037,63.1949005z M527.9990234,55.5465012c7.7709961,0,14.6099854,1.3978996,20.5579834,4.1431999l1.6759644-3.6318016
			c-6.5529785-3.024498-13.9779663-4.5113983-22.2339478-4.5113983V55.5465012z M548.5570068,59.6897011
			c5.9429932,2.7426987,10.7130127,6.6856956,14.3499756,11.8385963l3.2680054-2.3068008
			c-4.0559692-5.7454948-9.3829956-10.1364975-15.9420166-13.1635971L548.5570068,59.6897011z M564.5410156,72.3749008h1.9229736v-4
			h-1.9229736V72.3749008z M568.4639893,70.3749008V57.3930016h-4v12.9818993H568.4639893z M566.4639893,59.3930016h30.2910156v-4
			h-30.2910156V59.3930016z M594.7550049,57.3930016v114.1929932h4V57.3930016H594.7550049z M594.7550049,171.5859985
			c0,12.8809967-2.5120239,23.923996-7.4570313,33.1959991l3.5290527,1.8829956
			c5.3119507-9.9599915,7.9279785-21.6759949,7.9279785-35.0789948H594.7550049z M587.2979736,204.7819977
			c-4.9469604,9.2750092-11.9599609,16.3619995-21.065979,21.3009949l1.9069824,3.5160065
			c9.8049927-5.3179932,17.3770142-12.977005,22.6880493-22.9340057L587.2979736,204.7819977z M566.2089844,226.0950012
			c-9.1109619,5.095993-19.8219604,7.6790009-32.2000122,7.6790009v4c12.9460449,0,24.3510132-2.7060089,34.1530151-8.1880035
			L566.2089844,226.0950012z M534.4899902,153.3919983c9.3309937,0,17.3660278-3.2449951,23.9940186-9.7030029l-2.7910156-2.8649902
			c-5.8729858,5.7220001-12.9039917,8.5679932-21.2030029,8.5679932V153.3919983z M558.5020142,143.6699982
			c6.7039795-6.7030029,9.9619751-15.75,9.9619751-26.8969955h-4c0,10.3289948-2.9920044,18.2719955-8.789978,24.0689926
			L558.5020142,143.6699982z M568.4639893,116.7730026c0-11.4430008-3.2449951-20.5261993-9.9989624-26.9337006
			l-2.7530518,2.9017944c5.7470093,5.4526062,8.7520142,13.3579025,8.7520142,24.0319061H568.4639893z M558.5020142,89.8759995
			c-6.4819946-6.4825974-14.5310059-9.721199-24.0120239-9.721199v4c8.4700317,0,15.4860229,2.8516998,21.184021,8.5495987
			L558.5020142,89.8759995z M534.4899902,80.1548004c-9.4799805,0-17.5979614,3.2373962-24.2339783,9.7030029l2.7909851,2.8648987
			c5.8660278-5.715004,12.9730225-8.5679016,21.4429932-8.5679016V80.1548004z M510.256012,89.8578033
			c-6.7279968,6.5556946-9.980011,15.6201935-9.980011,26.9151993h4c0-10.5009995,2.9979858-18.425499,8.7709961-24.0503006
			L510.256012,89.8578033z M500.276001,116.7730026c0,11.2959976,3.2520142,20.359993,9.980011,26.9159927l2.7909851-2.8649902
			c-5.7730103-5.625-8.7709961-13.5490036-8.7709961-24.0510025H500.276001z M510.256012,143.6889954
			c6.6360168,6.4650116,14.7539978,9.7030029,24.2339783,9.7030029v-4c-8.4699707,0-15.5769653-2.8529968-21.4429932-8.5679932
			L510.256012,143.6889954z M627.53302,7.86937v-2h-2v2H627.53302z M659.026001,7.86937h2v-2h-2V7.86937z M659.026001,180v2h2v-2
			H659.026001z M627.53302,180h-2v2h2V180z M627.53302,9.8693705h31.492981V5.86937H627.53302V9.8693705z M657.026001,7.86937V180h4
			V7.86937H657.026001z M659.026001,178H627.53302v4h31.492981V178z M629.53302,180V7.86937h-4V180H629.53302z
			 M713.3300171,175.4320068l0.9949951-1.7340088L713.3300171,175.4320068z M690.2509766,152.3529968l-1.7539673,0.9620056
			l0.0089722,0.0169983l0.0100098,0.0169983L690.2509766,152.3529968z M690.2509766,86.4821014l1.7530518,0.9617004
			l0.006958-0.0118027L690.2509766,86.4821014z M777.7579956,61.7202988l-1.0239868,1.7176018l0,0L777.7579956,61.7202988z
			 M798.4329834,84.0780029l-1.7949829,0.8822937l0.0059814,0.0121002l0.0060425,0.0121002L798.4329834,84.0780029z
			 M804.9240112,126.1490021v2h1.7349854l0.2449951-1.7170029L804.9240112,126.1490021z M712.848999,126.1490021v-2h-2.3549805
			l0.3809814,2.3239975L712.848999,126.1490021z M724.3880005,148.5070038l-1.2880249,1.5299988l0.0220337,0.0179901
			l0.0219727,0.0170135L724.3880005,148.5070038z M765.257019,151.3919983l1.0209961,1.7189941l0.0079956-0.0039978
			l0.0079956-0.0049896L765.257019,151.3919983z M777.7579956,138.6499939l0.8809814-1.7949982l-1.6799927-0.8249969
			l-0.93396,1.621994L777.7579956,138.6499939z M803.2410278,151.151001l1.7349854,0.9949951l1.0620117-1.8509979
			l-1.9160156-0.9389954L803.2410278,151.151001z M775.3540039,103.7910004v2h2.1740112L777.3469849,103.625
			L775.3540039,103.7910004z M771.0269775,92.4922028l-1.6959839,1.0599976l0.026001,0.0418015l0.0280151,0.0403976
			L771.0269775,92.4922028z M760.6900024,83.1164017l-1.0200195,1.7205963l0.0369873,0.0220032l0.0380249,0.020401
			L760.6900024,83.1164017z M725.8309937,86.001297l1.2659912,1.547905l0.0050049-0.0041046L725.8309937,86.001297z
			 M714.2910156,103.7910004l-1.9050293-0.6080017l-0.8330078,2.6080017h2.7380371V103.7910004z M746.2650146,181.845993
			c-11.8599854,0-22.4910278-2.7269897-31.9400024-8.147995l-1.9910278,3.4690094
			c10.1040039,5.7969971,21.4299927,8.6789856,33.9310303,8.6789856V181.845993z M714.3250122,173.697998
			c-9.4689941-5.4329987-16.9069824-12.8710022-22.3400269-22.3399963l-3.4689941,1.9909973
			c5.7860107,10.0839996,13.7340088,18.0319977,23.8179932,23.8180084L714.3250122,173.697998z M692.0040283,151.3919983
			c-5.2730103-9.6170044-7.927002-20.4199982-7.927002-32.4550018h-4c0,12.6459961,2.7949829,24.1210022,8.4199829,34.378006
			L692.0040283,151.3919983z M684.0770264,118.9369965c0-11.375,2.6449585-21.8610001,7.927002-31.4931946l-3.507019-1.9234009
			c-5.6160278,10.2413025-8.4199829,21.3916016-8.4199829,33.4165955H684.0770264z M692.0109863,87.4319992
			c5.2850342-9.7932968,12.5750122-17.5452957,21.8880005-23.2881012l-2.0999756-3.4046974
			c-9.9199829,6.1170998-17.6950073,14.3922005-23.3079834,24.7930031L692.0109863,87.4319992z M713.8989868,64.143898
			c9.2839966-5.7255974,19.6560059-8.5973969,31.1640015-8.5973969v-4c-12.2109985,0-23.315979,3.058197-33.2639771,9.1926994
			L713.8989868,64.143898z M745.0629883,55.5465012c12.3699951,0,22.9000244,2.6595001,31.6710205,7.8913994l2.0490112-3.4351997
			c-9.5-5.6665001-20.7670288-8.4561996-33.7200317-8.4561996V55.5465012z M776.7340088,63.4379005
			c8.8059692,5.2531013,15.4290161,12.416996,19.9039917,21.5223961l3.5900269-1.7644958
			c-4.8200073-9.8066025-11.9810181-17.5477982-21.4450073-23.1931L776.7340088,63.4379005z M796.6500244,84.9844971
			c4.6539917,9.1511002,6.9949951,19.3345032,6.9949951,30.5865021h4c0-11.8259964-2.4660034-22.6384964-7.4290161-32.399498
			L796.6500244,84.9844971z M803.6450195,115.5709991c0,3.5999985-0.2340088,7.0309982-0.7010498,10.2949982l3.960022,0.5660019
			c0.4949951-3.4670029,0.7410278-7.0879974,0.7410278-10.8610001H803.6450195z M804.9240112,124.1490021H712.848999v4h92.0750122
			V124.1490021z M710.875,126.4729996c1.6610107,10.1279984,5.6870117,18.0580063,12.2249756,23.564003l2.5770264-3.0599976
			c-5.6430054-4.7519989-9.3099976-11.727005-10.8549805-21.1510086L710.875,126.4729996z M723.1439819,150.0720062
			c6.6350098,5.2739868,14.5360107,7.8869934,23.6019897,7.8869934v-4c-8.242981,0-15.2469482-2.3549957-21.1129761-7.0180054
			L723.1439819,150.0720062z M746.7459717,157.9589996c7.4960327,0,14.0360107-1.5839996,19.5320435-4.8480072l-2.0419922-3.4389954
			c-4.7610474,2.8269958-10.5620117,4.2870026-17.4900513,4.2870026V157.9589996z M766.2940063,153.102005
			c5.572998-3.378006,9.9819946-7.8680115,13.197998-13.45401l-3.46698-1.9960022
			c-2.8740234,4.9930115-6.8000488,8.9960022-11.8040161,12.029007L766.2940063,153.102005z M776.8770142,140.4459991
			l25.4840088,12.5010071l1.7609863-3.5910034l-25.4830322-12.5010071L776.8770142,140.4459991z M801.5059814,150.1560059
			c-12.1380005,21.1649933-30.4619751,31.6899872-55.2409668,31.6899872v4c26.1870117,0,45.8469849-11.269989,58.7109985-33.6999969
			L801.5059814,150.1560059z M777.3469849,103.625c-0.3540039-4.2505035-1.9459839-8.3476028-4.6779785-12.2749023
			l-3.2839966,2.2843018c2.3969727,3.4450989,3.6889648,6.8806,3.9760132,10.3226013L777.3469849,103.625z M772.7230225,91.4321976
			c-2.6110229-4.1772003-6.3320313-7.5304947-11.0890503-10.0786972l-1.8889771,3.5259018
			c4.2189941,2.2598953,7.3889771,5.1570969,9.5859985,8.6727982L772.7230225,91.4321976z M761.7089844,81.3957977
			c-4.6870117-2.7775955-10.1809692-4.1259003-16.4049683-4.1259003v4c5.6359863,0,10.3989868,1.2161026,14.3659668,3.5671005
			L761.7089844,81.3957977z M745.3040161,77.2698975c-7.9639893,0-14.9119873,2.3843994-20.7449951,7.1875l2.5429688,3.0876999
			c5.06604-4.1719971,11.098999-6.2751999,18.2020264-6.2751999V77.2698975z M724.5640259,84.4533997
			c-5.6329956,4.6088028-9.6750488,10.8879013-12.1780396,18.729599l3.8110352,1.2160034
			c2.3049927-7.2230988,5.9549561-12.8040009,10.8999634-16.8498001L724.5640259,84.4533997z M714.2910156,105.7910004h61.0629883
			v-4h-61.0629883V105.7910004z M931.6220093,7.86937v-2h-1.3870239l-0.4859619,1.2989001L931.6220093,7.86937z
			 M968.8850098,7.86937l1.8720093-0.7033901L970.2700195,5.86937h-1.3850098V7.86937z M1033.5500488,180v2h2.8898926
			l-1.0098877-2.7030029L1033.5500488,180z M997.7329712,180l-1.8869629,0.6620026L996.315979,182h1.4169922V180z
			 M983.309021,138.8910065l1.8869629-0.6630096l-0.4689941-1.3369904h-1.4179688V138.8910065z M917.4379883,138.8910065v-2
			h-1.4179688l-0.4689941,1.3369904L917.4379883,138.8910065z M903.0139771,180v2h1.4170532l0.4699707-1.3379974L903.0139771,180z
			 M867.1929932,180l-1.8729858-0.701004L864.309021,182h2.8839722V180z M972.7310181,109.0800018v2h2.8189697l-0.9309692-2.6600037
			L972.7310181,109.0800018z M957.5859985,65.8071976l-1.914978,0.578804l0.0130005,0.0411987l0.0139771,0.0407028
			L957.5859985,65.8071976z M951.335022,45.1323013L953.25,44.5535011l-0.4299927-1.4211998h-1.4849854V45.1323013z
			 M949.4119873,45.1323013v-2h-1.4849854l-0.4299927,1.4211998L949.4119873,45.1323013z M943.1610107,65.8071976
			l1.8850098,0.6700058l0.0159912-0.0452042l0.0139771-0.0459976L943.1610107,65.8071976z M927.7750244,109.0800018
			l-1.8840332-0.6699982l-0.9489746,2.6699982h2.8330078V109.0800018z M931.6220093,9.8693705h37.2630005V5.86937h-37.2630005
			V9.8693705z M967.0130005,8.5727596l64.6670532,172.130249l3.75-1.4060059L970.757019,7.1659799L967.0130005,8.5727596z
			 M1033.5500488,178h-35.8170776v4h35.8170776V178z M999.6209717,179.3379974l-14.4249878-41.1100006l-3.7739868,1.3249969
			l14.4240112,41.1090088L999.6209717,179.3379974z M983.309021,136.8910065h-65.8710327v4h65.8710327V136.8910065z
			 M915.5510254,138.2279968l-14.4250488,41.1100006l3.7750244,1.3240051l14.4240112-41.1090088L915.5510254,138.2279968z
			 M903.0139771,178h-35.8209839v4h35.8209839V178z M869.065979,180.701004L933.4949951,8.5704699l-3.7459717-1.4021997
			l-64.4290161,172.130722L869.065979,180.701004z M974.6190186,108.4199982l-15.1459961-43.2734985l-3.7750244,1.3214035
			l15.1459961,43.2730942L974.6190186,108.4199982z M959.5,65.2284012l-6.25-20.6749001l-3.8289795,1.1576004l6.25,20.6749001
			L959.5,65.2284012z M951.335022,43.1323013h-1.9230347v4h1.9230347V43.1323013z M947.4970093,44.5535011l-6.25,20.6749001
			l3.8289795,1.1576004l6.25-20.6749001L947.4970093,44.5535011z M941.2769775,65.1371994l-15.3859863,43.2728043
			L929.6599731,109.75l15.3860474-43.2727966L941.2769775,65.1371994z M927.7750244,111.0800018h44.9559937v-4h-44.9559937
			V111.0800018z M1052.4699707,57.3930016v-2h-2v2H1052.4699707z M1082.0400391,57.3930016h2v-2h-2V57.3930016z
			 M1082.0400391,72.7789993h-2v2h2V72.7789993z M1083.9599609,72.7789993v2h1.1099854l0.5900879-0.9441986L1083.9599609,72.7789993
			z M1099.5899658,58.8353996l0.8900146,1.7888985L1100.5,60.615799l0.0200195-0.0086975L1099.5899658,58.8353996z
			 M1155.1199951,67.009201l-1.5200195,1.3015976L1155.1199951,67.009201z M1166.6600342,180v2h2v-2H1166.6600342z
			 M1135.1700439,180h-2v2h2V180z M1129.1600342,89.3669968l-1.4700928,1.3588028l0,0L1129.1600342,89.3669968z
			 M1091.6600342,92.7326965l-1.5600586-1.254097l-0.0100098,0.0117035l-0.0100098,0.011795L1091.6600342,92.7326965z
			 M1083.9599609,180v2h2v-2H1083.9599609z M1052.4699707,180h-2v2h2V180z M1052.4699707,59.3930016h29.5700684v-4h-29.5700684
			V59.3930016z M1080.0400391,57.3930016v15.3859978h4V57.3930016H1080.0400391z M1082.0400391,74.7789993h1.9199219v-4h-1.9199219
			V74.7789993z M1085.6600342,73.8348007c3.4799805-5.5915985,8.4000244-9.9967995,14.8199463-13.2105026l-1.7900391-3.5776978
			c-7.0299072,3.517601-12.5299072,8.4080963-16.4299316,14.6764984L1085.6600342,73.8348007z M1100.5200195,60.6071014
			c6.4299316-3.370903,13.4000244-5.0606003,20.9499512-5.0606003v-4c-8.1699219,0-15.7800293,1.8362007-22.8099365,5.5172997
			L1100.5200195,60.6071014z M1121.4699707,55.5465012c14.3100586,0,24.9100342,4.3388977,32.1300049,12.7642975
			l3.0400391-2.6031952c-8.1600342-9.5249023-20-14.1611023-35.1700439-14.1611023V55.5465012z M1153.5999756,68.3107986
			c7.3000488,8.5115051,11.0600586,20.2590027,11.0600586,35.4802017h4c0-15.8705978-3.9300537-28.6445007-12.0200195-38.0833969
			L1153.5999756,68.3107986z M1164.6600342,103.7910004V180h4v-76.2089996H1164.6600342z M1166.6600342,178h-31.4899902v4
			h31.4899902V178z M1137.1700439,180v-72.3619995h-4V180H1137.1700439z M1137.1700439,107.6380005
			c0-8.1865997-2.0900879-14.8242035-6.5400391-19.6297989l-2.9400635,2.717598
			c3.5600586,3.848999,5.4801025,9.3921967,5.4801025,16.9122009H1137.1700439z M1130.6300049,88.0082016
			c-4.4699707-4.8249054-10.6600342-7.1322021-18.3000488-7.1322021v4c6.7900391,0,11.8100586,2.0201035,15.3599854,5.8498001
			L1130.6300049,88.0082016z M1112.3299561,80.8759995c-9.0899658,0-16.5599365,3.5559998-22.2299805,10.6026001
			l3.1099854,2.5081024c4.9100342-6.0956039,11.2299805-9.1107025,19.1199951-9.1107025V80.8759995z M1090.0799561,91.5020981
			c-5.4499512,6.986702-8.1199951,15.6978989-8.1199951,25.9919052h4c0-9.5790024,2.4700928-17.375,7.2700195-23.5307999
			L1090.0799561,91.5020981z M1081.9599609,117.4940033V180h4v-62.5059967H1081.9599609z M1083.9599609,178h-31.4899902v4
			h31.4899902V178z M1054.4699707,180V57.3930016h-4V180H1054.4699707z M1200.7399902,172.5469971l-1.3599854,1.4700012
			l0.0100098,0.0070038l0.0100098,0.0070038L1200.7399902,172.5469971z M1194.7299805,120.8600006l1.6400146,1.1389999l0,0
			L1194.7299805,120.8600006z M1269.9799805,106.9169998l-0.7600098,1.8499985l2.7600098,1.1330032v-2.9830017H1269.9799805z
			 M1262.2800293,85.280098L1261,86.8125l0.0100098,0.0100021l0.0100098,0.0097961L1262.2800293,85.280098z
			 M1225.2600098,83.1164017l0.8699951,1.7995987l0.0100098-0.0053024l0.0200195-0.0054016L1225.2600098,83.1164017z
			 M1212.0400391,93.4539032l-1.2399902,1.5725937l1.5499268,1.2139053l1.2399902-1.523201L1212.0400391,93.4539032z
			 M1191.8399658,77.5870972l-1.5799561-1.2210007l-1.2099609,1.5694046l1.5599365,1.2241974L1191.8399658,77.5870972z
			 M1214.1999512,59.7971001l0.8400879,1.8139992l0,0L1214.1999512,59.7971001z M1286.3199463,66.5283966l1.3300781-1.4974976l0,0
			L1286.3199463,66.5283966z M1300.9899902,180v2h2v-2H1300.9899902z M1269.9799805,180h-2v2h2V180z M1269.9799805,167.4989929h2v-2
			h-2V167.4989929z M1268.0500488,167.4989929v-2h-0.9801025l-0.5999756,0.7830048L1268.0500488,167.4989929z
			 M1253.3900146,179.279007l-0.9000244-1.7890015l-0.0100098,0.0049896L1252.4699707,177.5L1253.3900146,179.279007z
			 M1261.8000488,150.6699982l-1.4700928-1.3529968v0.0019989L1261.8000488,150.6699982z M1269.9799805,129.9960022h2v-1.2700043
			l-1.1500244-0.5399933L1269.9799805,129.9960022z M1225.0200195,154.7570038l-1.3499756,1.4799957l0.0198975,0.0169983
			l0.0200195,0.0169983L1225.0200195,154.7570038z M1232.7099609,181.845993
			c-12.5699463,0-22.7199707-3.6329956-30.6300049-10.7819977l-2.6799316,2.9670105
			c8.7600098,7.9160004,19.9199219,11.8149872,33.3099365,11.8149872V181.845993z M1202.0999756,171.0780029
			c-7.8900146-7.279007-11.8599854-16.7440033-11.8599854-28.5810089h-4c0,12.8440094,4.3599854,23.4130096,13.1400146,31.5200043
			L1202.0999756,171.0780029z M1190.2399902,142.496994c0-7.798996,2.0600586-14.6079941,6.1300049-20.4979935l-3.2900391-2.2770004
			c-4.5699463,6.6100006-6.8399658,14.2259979-6.8399658,22.7749939H1190.2399902z M1196.3699951,121.9990005
			c4.1099854-5.9250031,9.7399902-10.5070038,16.9699707-13.7369995l-1.6400146-3.6520004
			c-7.8299561,3.5009995-14.0599365,8.534996-18.6199951,15.1119995L1196.3699951,121.9990005z M1213.3399658,108.262001
			c7.2399902-3.2389984,15.3000488-4.875,24.1800537-4.875v-3.9997025c-9.3800049,0-18,1.7306976-25.8200684,5.222702
			L1213.3399658,108.262001z M1237.5200195,103.387001c12.4799805,0,23.0200195,1.8180008,31.6999512,5.3799973l1.5200195-3.6999969
			c-9.2800293-3.8110046-20.3699951-5.6797028-33.2199707-5.6797028V103.387001z M1271.9799805,106.9169998v-5.2890015h-4v5.2890015
			H1271.9799805z M1271.9799805,101.6279984c0-7.3209-2.8299561-13.3451996-8.4399414-17.9001999l-2.5200195,3.1044998
			c4.6500244,3.7790985,6.9599609,8.6531982,6.9599609,14.7957001H1271.9799805z M1263.5699463,83.7477036
			c-5.4299316-4.5521011-12.6599121-6.7182007-21.4799805-6.7182007v4c8.1700439,0,14.4000244,2.0009003,18.9100342,5.7829971
			L1263.5699463,83.7477036z M1242.0899658,77.0295029c-6.0999756,0-12.0100098,1.4425964-17.7199707,4.2980957l1.7900391,3.5776978
			c5.1799316-2.5936966,10.4899902-3.8757935,15.9299316-3.8757935V77.0295029z M1224.3900146,81.316803
			c-5.5400391,2.6846008-10.1800537,6.3083954-13.9000244,10.8736954l3.0999756,2.5267029
			c3.3300781-4.0893021,7.5-7.3571014,12.5400391-9.8012009L1224.3900146,81.316803z M1213.2700195,91.8812027
			l-20.1900635-15.866806l-2.4699707,3.1453018l20.1900635,15.8667984L1213.2700195,91.8812027z M1193.4300537,78.8080978
			c5.7299805-7.4337006,12.9199219-13.1625977,21.6099854-17.1969986l-1.6800537-3.6280975
			c-9.2600098,4.2996979-16.9699707,10.4308014-23.0999756,18.3830948L1193.4300537,78.8080978z M1215.0400391,61.6110992
			c8.6999512-4.0361977,18.1799316-6.0645981,28.4899902-6.0645981v-4c-10.8499756,0-20.9100342,2.1386986-30.1700439,6.4365005
			L1215.0400391,61.6110992z M1243.5300293,55.5465012c18.4799805,0,32.1899414,4.2650986,41.4699707,12.4794006
			l2.6500244-2.9950027c-10.2700195-9.0948982-25.0899658-13.4843979-44.1199951-13.4843979V55.5465012z M1285,68.0259018
			c9.2299805,8.1755981,13.9899902,20.2218018,13.9899902,36.4870987h4c0-17.0718002-5.0200195-30.3484039-15.3399658-39.4821014
			L1285,68.0259018z M1298.9899902,104.5130005V180h4v-75.4869995H1298.9899902z M1300.9899902,178h-31.0100098v4h31.0100098V178z
			 M1271.9799805,180v-12.5010071h-4V180H1271.9799805z M1269.9799805,165.4989929h-1.9299316v4h1.9299316V165.4989929z
			 M1266.4699707,166.2819977c-3.4799805,4.5390015-8.1199951,8.2819977-13.9799805,11.2080078l1.7900391,3.5779877
			c6.3299561-3.1639862,11.4699707-7.2749939,15.3599854-12.3519897L1266.4699707,166.2819977z M1252.4699707,177.5
			c-5.5999756,2.8760071-12.1599121,4.345993-19.7600098,4.345993v4c8.1199951,0,15.3300781-1.5739899,21.5900879-4.7879944
			L1252.4699707,177.5z M1240.1700439,161.3249969c9.5899658,0,17.3699951-3.0500031,23.1099854-9.3029938l-2.9500732-2.7030029
			c-4.8499756,5.2859955-11.4899902,8.0059967-20.1599121,8.0059967V161.3249969z M1263.2800293,152.0240021
			c5.7700195-6.2890015,8.6999512-13.6600037,8.6999512-22.0279999h-4c0,7.3379974-2.5300293,13.75-7.6500244,19.3209991
			L1263.2800293,152.0240021z M1270.8299561,128.1860046c-8.4399414-3.9710083-17.3099365-5.9600067-26.5799561-5.9600067v4
			c8.6800537,0,16.9699707,1.8569946,24.8699951,5.5789948L1270.8299561,128.1860046z M1244.25,122.2259979
			c-8.3599854,0-15,1.5480042-19.5799561,4.9640045c-4.7000732,3.4980011-6.9400635,8.7229919-6.9400635,15.3069916h4
			c0-5.5979919,1.8499756-9.5079956,5.3300781-12.0999908c3.5899658-2.6740036,9.2099609-4.1710052,17.1899414-4.1710052
			V122.2259979z M1217.7299805,142.496994c0,5.5040131,1.9799805,10.1380005,5.9400635,13.7400055l2.6999512-2.9600067
			c-3.0899658-2.8079987-4.6400146-6.3479919-4.6400146-10.7799988H1217.7299805z M1223.7099609,156.2709961
			c4.0200195,3.4660034,9.6000977,5.0540009,16.460083,5.0540009v-4c-6.2900391,0-10.8000488-1.4570007-13.8400879-4.0809937
			L1223.7099609,156.2709961z M1329.9699707,7.86937v-2h-2v2H1329.9699707z M1361.4599609,7.86937h2v-2h-2V7.86937z
			 M1361.4599609,180v2h2v-2H1361.4599609z M1329.9699707,180h-2v2h2V180z M1329.9699707,9.8693705h31.4899902V5.86937h-31.4899902
			V9.8693705z M1359.4599609,7.86937V180h4V7.86937H1359.4599609z M1361.4599609,178h-31.4899902v4h31.4899902V178z
			 M1331.9699707,180V7.86937h-4V180H1331.9699707z M1430.6400146,174.2299957l1.8199463,0.8270111l0.3699951-0.8160095
			l-0.3599854-0.8199921L1430.6400146,174.2299957z M1378.9599609,57.3930016v-2h-3.0799561l1.25,2.8090973L1378.9599609,57.3930016
			z M1414.7800293,57.3930016l1.8399658-0.7688026l-0.5100098-1.2311974h-1.3299561V57.3930016z M1446.5100098,133.602005
			l-1.8499756,0.7679901l0.5200195,1.2320099h1.3299561V133.602005z M1448.4300537,133.602005v2h1.3599854l0.5-1.2570038
			L1448.4300537,133.602005z M1478.9599609,57.3930016v-2h-1.3499756l-0.5,1.2561989L1478.9599609,57.3930016z
			 M1514.0600586,57.3930016l1.8399658,0.7959976l1.2099609-2.7959976h-3.0499268V57.3930016z M1438.3399658,231.9279938v2
			h1.3100586l0.5200195-1.2039948L1438.3399658,231.9279938z M1404.4399414,231.9279938l-1.8199463-0.8269958l-1.2900391,2.8269958
			h3.1099854V231.9279938z M1432.4699707,173.4210052l-51.6899414-116.837204l-3.6500244,1.6182976l51.6800537,116.8368988
			L1432.4699707,173.4210052z M1378.9599609,59.3930016h35.8200684v-4h-35.8200684V59.3930016z M1412.9300537,58.1618004
			l31.7299805,76.2081909l3.6999512-1.5370026l-31.7399902-76.2087936L1412.9300537,58.1618004z M1446.5100098,135.602005h1.9200439
			v-4h-1.9200439V135.602005z M1450.2900391,134.3450012l30.5299072-76.2082062l-3.7099609-1.4875984l-30.5300293,76.2088013
			L1450.2900391,134.3450012z M1478.9599609,59.3930016h35.1000977v-4h-35.1000977V59.3930016z M1512.2299805,56.5969009
			L1436.5,231.1320038l3.6700439,1.5919952l75.7299805-174.5350037L1512.2299805,56.5969009z M1438.3399658,229.9279938h-33.9000244
			v4h33.9000244V229.9279938z M1406.2600098,232.7550049l26.1999512-57.697998l-3.6400146-1.654007l-26.1999512,57.697998
			L1406.2600098,232.7550049z M1567.9399414,179.279007l-0.6999512,1.871994l0.0300293,0.0099945l0.0200195,0.0090027
			L1567.9399414,179.279007z M1555.4399414,171.5859985l1.4200439-1.4140015l-0.0200195-0.0159912l-0.0100098-0.0149994
			L1555.4399414,171.5859985z M1544.1400146,84.3183975h2v-2h-2V84.3183975z M1522.75,84.3183975h-2v2h2V84.3183975z
			 M1522.75,57.3930016v-2h-2v2H1522.75z M1544.1400146,57.3930016v2h2v-2H1544.1400146z M1544.1400146,22.7744999v-2h-2v2
			H1544.1400146z M1575.6400146,22.7744999h2v-2h-2V22.7744999z M1575.6400146,57.3930016h-2v2h2V57.3930016z
			 M1605.6899414,57.3930016h2v-2h-2V57.3930016z M1605.6899414,84.3183975v2h2v-2H1605.6899414z M1575.6400146,84.3183975v-2h-2v2
			H1575.6400146z M1579.7199707,148.5070038l1.5100098-1.3170013l-0.0400391-0.0500031l-0.0499268-0.0469971
			L1579.7199707,148.5070038z M1598.7199707,151.151001L1598,149.2850037l-0.0300293,0.0099945l-0.0200195,0.0099945
			L1598.7199707,151.151001z M1606.6500244,147.0639954h2v-3.5319977l-3.0300293,1.8170013L1606.6500244,147.0639954z
			 M1606.6500244,177.8359985l0.7299805,1.8600006l1.2700195-0.5v-1.3600006H1606.6500244z M1584.7700195,179.9230042
			c-5.8900146,0-11.2800293-0.8529968-16.1800537-2.5360107l-1.2999268,3.7830048
			c5.3699951,1.8430023,11.1999512,2.753006,17.4799805,2.753006V179.9230042z M1568.6500244,177.4060059
			c-4.9200439-1.8430023-8.8300781-4.2680054-11.7900391-7.2340088L1554.0300293,173
			c3.4399414,3.4450073,7.8699951,6.147995,13.2099609,8.151001L1568.6500244,177.4060059z M1556.8299561,170.1410065
			c-7.039917-6.7369995-10.6899414-16.4110107-10.6899414-29.3270111h-4c0,13.6890106,3.8900146,24.5299988,11.9200439,32.2160034
			L1556.8299561,170.1410065z M1546.1400146,140.8139954V84.3183975h-4v56.4955978H1546.1400146z M1544.1400146,82.3183975H1522.75
			v4h21.3900146V82.3183975z M1524.75,84.3183975v-26.925396h-4v26.925396H1524.75z M1522.75,59.3930016h21.3900146v-4H1522.75
			V59.3930016z M1546.1400146,57.3930016V22.7744999h-4v34.6184998H1546.1400146z M1544.1400146,24.7744999h31.5v-4h-31.5
			V24.7744999z M1573.6400146,22.7744999v34.6184998h4V22.7744999H1573.6400146z M1575.6400146,59.3930016h30.0499268v-4
			h-30.0499268V59.3930016z M1603.6899414,57.3930016v26.925396h4v-26.925396H1603.6899414z M1605.6899414,82.3183975h-30.0499268v4
			h30.0499268V82.3183975z M1573.6400146,84.3183975v50.7256088h4V84.3183975H1573.6400146z M1573.6400146,135.0440063
			c0,6.4649963,1.3900146,11.6009979,4.6700439,14.8769989l2.8299561-2.8280029c-2.1800537-2.173996-3.5-6.0130005-3.5-12.048996
			H1573.6400146z M1578.2199707,149.8240051c2.8000488,3.2009888,7.3599854,4.5289917,13.0400391,4.5289917v-4
			c-5.2099609,0-8.3399658-1.2359924-10.0300293-3.1629944L1578.2199707,149.8240051z M1591.2600098,154.3529968
			c3.1999512,0,5.9699707-0.4169922,8.2299805-1.3560028l-1.5400391-3.6920013
			c-1.5999756,0.6640015-3.789917,1.0480042-6.6899414,1.0480042V154.3529968z M1599.4300537,153.0180054
			c2.2399902-0.8610077,5-2.2900085,8.25-4.2389984l-2.0600586-3.4300079
			c-3.1600342,1.897995-5.6899414,3.1940002-7.6199951,3.9360046L1599.4300537,153.0180054z M1604.6500244,147.0639954v30.7720032h4
			v-30.7720032H1604.6500244z M1605.9100342,175.9759979c-6.6400146,2.6289978-13.6900635,3.9470062-21.1400146,3.9470062v4
			c7.9399414,0,15.4799805-1.4060059,22.6099854-4.227005L1605.9100342,175.9759979z M1636.4200439,37.9201012l-1.4100342,1.4141998
			l0,0L1636.4200439,37.9201012z M1636.4200439,9.3118l1.3900146,1.4427996l0.0098877-0.0141993l0.0200195-0.0144005
			L1636.4200439,9.3118z M1665.0300293,9.3118l-1.4400635,1.3851004l0.0300293,0.0293999l0.0300293,0.0282993L1665.0300293,9.3118z
			 M1665.0300293,37.9201012l-1.4100342-1.4141998l-0.0200195,0.0144005l-0.0100098,0.014698L1665.0300293,37.9201012z
			 M1634.9799805,57.3930016v-2h-2v2H1634.9799805z M1666.4799805,57.3930016h2v-2h-2V57.3930016z M1666.4799805,180v2h2v-2
			H1666.4799805z M1634.9799805,180h-2v2h2V180z M1650.8499756,41.9303017c-5.0699463,0-9.3800049-1.7884026-13.0100098-5.4244003
			l-2.8299561,2.8283997c4.3800049,4.3775978,9.6899414,6.5960007,15.8399658,6.5960007V41.9303017z M1637.8399658,36.5059013
			c-3.6400146-3.6360016-5.4299316-7.9371014-5.4299316-13.0101013h-4c0,6.1459007,2.2199707,11.4609985,6.5999756,15.838501
			L1637.8399658,36.5059013z M1632.4100342,23.4958c0-5.0711002,1.789917-9.2761002,5.4000244-12.7412004l-2.7700195-2.8855696
			c-4.4000244,4.22787-6.6300049,9.4787693-6.6300049,15.62677H1632.4100342z M1637.8399658,10.7259998
			c3.6300049-3.6359496,7.9400635-5.4243398,13.0100098-5.4243398v-4c-6.1500244,0-11.4599609,2.21838-15.8399658,6.5959301
			L1637.8399658,10.7259998z M1650.8499756,5.3016601c5.0700684,0,9.2700195,1.7856998,12.7399902,5.3952403l2.8900146-2.7701602
			C1662.25,3.5227201,1657,1.3016599,1650.8499756,1.3016599V5.3016601z M1663.6500244,10.7545996
			c3.6099854,3.4651003,5.3900146,7.6701002,5.3900146,12.7412004h4c0-6.1480007-2.2200928-11.3989-6.6199951-15.62677
			L1663.6500244,10.7545996z M1669.0400391,23.4958c0,5.073-1.7900391,9.3740997-5.4200439,13.0101013l2.8299561,2.8283997
			c4.3699951-4.3775024,6.5900879-9.6926003,6.5900879-15.838501H1669.0400391z M1663.5899658,36.5349998
			c-3.4699707,3.6095009-7.6699219,5.3953018-12.7399902,5.3953018v4c6.1500244,0,11.4000244-2.2210999,15.6300049-6.625103
			L1663.5899658,36.5349998z M1634.9799805,59.3930016h31.5v-4h-31.5V59.3930016z M1664.4799805,57.3930016V180h4V57.3930016
			H1664.4799805z M1666.4799805,178h-31.5v4h31.5V178z M1636.9799805,180V57.3930016h-4V180H1636.9799805z
			 M1722.8499756,175.6730042l-1,1.7339935l0.0100098,0.0070038l0.0100098,0.0059967L1722.8499756,175.6730042z
			 M1699.7700195,152.3529968l-1.7600098,0.9620056l0.0100098,0.0110016l0.0100098,0.0110016L1699.7700195,152.3529968z
			 M1699.7700195,85.280098l-1.7399902-0.9832001l-0.0100098,0.0094986L1699.7700195,85.280098z M1722.8499756,61.960701
			l0.9899902,1.7346992L1722.8499756,61.960701z M1791.1199951,62.4415016l-1.0400391,1.7099953l0.0100098,0.0063019
			l0.0200195,0.0061035L1791.1199951,62.4415016z M1812.2800293,87.2033005l0.7700195,1.846199l1.8199463-0.7602997
			l-0.7399902-1.8333969L1812.2800293,87.2033005z M1783.4300537,99.2236023l-1.8100586,0.8513947l0.8100586,1.7300034
			l1.7698975-0.7350006L1783.4300537,99.2236023z M1732.2199707,92.7326965l-1.4499512-1.3784943l-0.0100098,0.0093994v0.0094986
			L1732.2199707,92.7326965z M1732.2199707,144.901001l-1.4599609,1.3589935v0.0100098l0.0100098,0.0090027L1732.2199707,144.901001
			z M1784.8699951,137.447998l0.8000488-1.8329926l-1.7200928-0.7519989l-0.8599854,1.67099L1784.8699951,137.447998z
			 M1813.4799805,149.9490051l1.7900391,0.8839874l0.9299316-1.8779907l-1.9199219-0.8379974L1813.4799805,149.9490051z
			 M1790.8800049,174.951004l-1.0400391-1.7100067L1790.8800049,174.951004z M1756.0200195,181.845993
			c-12.0300293,0-22.75-2.6539917-32.2000732-7.9199982l-1.9499512,3.4940033
			c10.1099854,5.6309967,21.5100098,8.4259949,34.1500244,8.4259949V181.845993z M1723.8399658,173.9380035
			c-9.4599609-5.428009-16.9000244-12.9400024-22.3299561-22.5680084l-3.4799805,1.9670105
			c5.7800293,10.2449951,13.7299805,18.2799988,23.8199463,24.0699921L1723.8399658,173.9380035z M1701.5200195,151.3919983
			c-5.2700195-9.6129913-7.9300537-20.4949951-7.9300537-32.6959991h-4c0,12.802002,2.8000488,24.3580017,8.4200439,34.6190033
			L1701.5200195,151.3919983z M1693.5899658,118.6959991c0-12.1999969,2.6600342-22.9970016,7.9200439-32.4421997
			l-3.4899902-1.947403c-5.6300049,10.1078033-8.4300537,21.5886002-8.4300537,34.3896027H1693.5899658z M1701.5100098,86.263298
			c5.4299316-9.6278992,12.8699951-17.139595,22.3299561-22.5678978l-1.9899902-3.4693985
			c-10.0899658,5.7905998-18.039917,13.8250999-23.8199463,24.0708961L1701.5100098,86.263298z M1723.8399658,63.6954002
			c9.4500732-5.4193993,20.1600342-8.1488991,32.1800537-8.1488991v-4c-12.6500244,0-24.0600586,2.8799973-34.1700439,8.6795006
			L1723.8399658,63.6954002z M1756.0200195,55.5465012c13.3299561,0,24.6600342,2.8981972,34.0599365,8.6049957l2.0800781-3.4199982
			c-10.1500244-6.1531982-22.2200928-9.1849976-36.1400146-9.1849976V55.5465012z M1790.1099854,64.1639023
			c9.3800049,5.5411987,16.1500244,13.448494,20.3100586,23.7869949l3.7099609-1.4950943
			c-4.4899902-11.1378021-11.8299561-19.7384033-21.9899902-25.736702L1790.1099854,64.1639023z M1811.5100098,85.3572006
			l-28.8499756,12.0203018l1.539917,3.6924973l28.8500977-12.0205002L1811.5100098,85.3572006z M1785.2399902,98.3720016
			c-2.7099609-5.7602997-6.5300293-10.1717987-11.4799805-13.1267014
			c-4.9499512-2.9484024-10.8900146-4.3693008-17.7399902-4.3693008v4c6.2999268,0,11.4899902,1.3037033,15.6899414,3.8046036
			c4.1800537,2.494194,7.4899902,6.2565002,9.9100342,11.3943939L1785.2399902,98.3720016z M1756.0200195,80.8759995
			c-10.1199951,0-18.5899658,3.4841995-25.25,10.4782028l2.9000244,2.756897
			c5.8499756-6.148201,13.25-9.2350998,22.3499756-9.2350998V80.8759995z M1730.7600098,91.3731003
			c-6.5,7.0119019-9.6700439,16.1868973-9.6700439,27.3228989h4c0-10.3389969,2.9200439-18.4729996,8.5999756-24.6037979
			L1730.7600098,91.3731003z M1721.0899658,118.6959991c0,11.2879944,3.1600342,20.5469971,9.6700439,27.5639954
			l2.9299316-2.7189941c-5.6799316-6.125-8.5999756-14.3350067-8.5999756-24.8450012H1721.0899658z M1730.7700195,146.279007
			c6.6600342,6.993988,15.1300049,10.4779968,25.25,10.4779968v-4c-9.0999756,0-16.5-3.0870056-22.3499756-9.2350006
			L1730.7700195,146.279007z M1756.0200195,156.7570038c6.9499512,0,13.0499268-1.5080109,18.2199707-4.6119995
			c5.1800537-3.105011,9.3000488-7.7340088,12.4100342-13.7830048l-3.5600586-1.8280029
			c-2.8199463,5.4909973-6.4699707,9.5169983-10.9099121,12.1809998c-4.4400635,2.6660004-9.8000488,4.0420074-16.1600342,4.0420074
			V156.7570038z M1784.0699463,139.2810059l28.6101074,12.5009918l1.5999756-3.6649933l-28.6099854-12.5019989
			L1784.0699463,139.2810059z M1811.6899414,149.0659943c-5.1298828,10.4130096-12.4099121,18.4530029-21.8499756,24.1750031
			l2.0800781,3.4199982c10.1199951-6.1369934,17.8999023-14.7649994,23.3499756-25.8280029L1811.6899414,149.0659943z
			 M1789.8399658,173.2409973c-9.4099121,5.7089996-20.6500244,8.6049957-33.8199463,8.6049957v4
			c13.7700195,0,25.7600098-3.0329895,35.9000244-9.1849976L1789.8399658,173.2409973z M1846.4699707,174.7109985
			l-1.1099854,1.6640015l0.0100098,0.0050049l0.0100098,0.0039978L1846.4699707,174.7109985z M1827.2399902,150.9109955
			l-0.8000488-1.8339996l-1.7399902,0.7600098l0.6700439,1.7789917L1827.2399902,150.9109955z M1855.3699951,138.6499939
			l1.8299561-0.8119965l-0.8099365-1.8150024l-1.8200684,0.7940063L1855.3699951,138.6499939z M1866.1899414,151.8730011
			l-1.0999756,1.6719971l0.0300293,0.0220032l0.0400391,0.0200043L1866.1899414,151.8730011z M1897.1999512,153.5549927
			l0.8300781,1.8180084l0.0300293-0.0140076l0.0299072-0.0149994L1897.1999512,153.5549927z M1897.6800537,135.5249939
			l-1.0200195,1.7220001l0.0299072,0.0170135l0.0300293,0.0169983L1897.6800537,135.5249939z M1881.8100586,129.9960022
			l0.4499512-1.951004L1882.25,128.0429993l-0.0100098-0.0019989L1881.8100586,129.9960022z M1867.3900146,126.8700027
			l-0.4699707,1.9439926l0.0198975,0.006012l0.0300293,0.0049896L1867.3900146,126.8700027z M1842.6300049,113.8880005
			l-1.4000244,1.4319992l0.0100098,0.0090027L1841.25,115.336998L1842.6300049,113.8880005z M1839.0200195,71.0960999
			l-1.5800781-1.2216034l-0.0098877,0.0144043l-0.0100098,0.0146027L1839.0200195,71.0960999z M1856.3299561,58.1142006
			l-0.7600098-1.8484993l-0.0098877,0.0029984l-0.0100098,0.0030022L1856.3299561,58.1142006z M1931.3399658,80.2314987
			l0.8000488,1.8324051l1.8900146-0.8286057l-0.8900146-1.8655014L1931.3399658,80.2314987z M1904.4100342,92.0113983
			l-1.75,0.9712982l0.8900146,1.5902023l1.6599121-0.7292023L1904.4100342,92.0113983z M1868.3499756,82.1548004
			l1.0300293,1.7149963l0.0300293-0.0184937l0.0299072-0.0195999L1868.3499756,82.1548004z M1879.8900146,102.5889969
			l-0.5100098,1.9340057l0.0200195,0.0059967l0.0200195,0.0049973L1879.8900146,102.5889969z M1897.9200439,106.9169998
			l0.4899902-1.9410019l-0.0100098-0.0019989l-0.0100098-0.0019989L1897.9200439,106.9169998z M1925.3299561,120.8600006
			l-1.4399414,1.3959961l0.0100098,0.0090027l0.0100098,0.0090027L1925.3299561,120.8600006z M1927.7299805,164.8540039
			l-1.5899658-1.2129974v0.0069885L1927.7299805,164.8540039z M1908.9799805,178.7980042l-0.7800293-1.8440094v0.003006
			l-0.0100098,0.003006L1908.9799805,178.7980042z M1882.7700195,181.845993
			c-14.6400146,0-26.3200684-2.9919891-35.2000732-8.8079987l-2.1899414,3.3460083
			c9.7099609,6.3649902,22.2299805,9.4619904,37.3900146,9.4619904V181.845993z M1847.5799561,173.0469971
			c-8.7999268-5.8710022-14.9399414-13.4769897-18.4699707-22.8419952l-3.7399902,1.4109955
			c3.8399658,10.1889954,10.5300293,18.4490051,19.9899902,24.7590027L1847.5799561,173.0469971z M1828.0400391,152.7440033
			l28.1300049-12.2600098l-1.6000977-3.6669922l-28.1300049,12.2599945L1828.0400391,152.7440033z M1853.5400391,139.4620056
			c2.6999512,6.071991,6.539917,10.7999878,11.5499268,14.0829926l2.1900635-3.3450012
			c-4.2800293-2.8069916-7.6500244-6.8939972-10.0800781-12.3619995L1853.5400391,139.4620056z M1865.1600342,153.5870056
			c5.1500244,3.0929871,11.039917,4.6129913,17.6099854,4.6129913v-4c-5.9300537,0-11.0899658-1.3649902-15.5500488-4.0419922
			L1865.1600342,153.5870056z M1882.7700195,158.1999969c5.9599609,0,11.0799561-0.9079895,15.2600098-2.8269958
			l-1.6600342-3.6360016c-3.5100098,1.6080017-8.0100098,2.4629974-13.5999756,2.4629974V158.1999969z M1898.0899658,155.3439941
			c2.1900635-1.0929871,3.9400635-2.5609894,5.1300049-4.446991c1.1900635-1.8899994,1.75-4.076004,1.75-6.477005h-4
			c0,1.7660065-0.4000244,3.1860046-1.1300049,4.3410034c-0.7399902,1.1589966-1.8699951,2.1750031-3.539917,3.0050049
			L1898.0899658,155.3439941z M1904.9699707,144.4199982c0-2.3040009-0.5100098-4.4120026-1.5999756-6.2509918
			c-1.0999756-1.8390045-2.7099609-3.2950134-4.7299805-4.4000092l-1.9200439,3.5120087
			c1.5,0.8179932,2.5400391,1.8059998,3.210083,2.9319916c0.6699219,1.1269989,1.039917,2.5039978,1.039917,4.2070007H1904.9699707z
			 M1898.6999512,133.8029938c-3.789917-2.2399902-9.3199463-4.1389923-16.4399414-5.7579956l-0.8900146,3.901001
			c6.9799805,1.5859985,12.0300293,3.3740082,15.2900391,5.3009949L1898.6999512,133.8029938z M1882.2399902,128.0410004
			l-14.4299316-3.125l-0.8400879,3.9089966l14.4200439,3.125L1882.2399902,128.0410004z M1867.8599854,124.9260025
			c-9.6400146-2.3320007-17.5699463-6.5070038-23.8499756-12.4869995L1841.25,115.336998
			c6.8499756,6.5220032,15.4399414,11.0009995,25.6700439,13.4769974L1867.8599854,124.9260025z M1844.0200195,112.4570007
			c-6.1700439-6.0220032-9.25-13.4337006-9.25-22.3687973h-4c0,9.976799,3.4899902,18.4317932,10.4599609,25.2317963
			L1844.0200195,112.4570007z M1834.7700195,90.0882034c0-6.6266022,1.9499512-12.5382004,5.8599854-17.7994003
			l-3.2099609-2.3852997c-4.4300537,5.957695-6.6500244,12.7073975-6.6500244,20.1847H1834.7700195z M1840.5999756,72.3177032
			c4.0999756-5.3086014,9.5800781-9.4355049,16.5100098-12.3610039l-1.5599365-3.6849976
			c-7.4899902,3.1647987-13.5500488,7.6924973-18.1101074,13.6027946L1840.5999756,72.3177032z M1857.0899658,59.9626999
			c7.1099854-2.9351006,14.9400635-4.4161987,23.5200195-4.4161987v-4c-9.0499268,0-17.4000244,1.5639992-25.0400391,4.7192001
			L1857.0899658,59.9626999z M1880.6099854,55.5465012c24.8200684,0,40.8599854,8.6611023,48.9200439,25.5467987
			l3.6099854-1.7235031c-8.9200439-18.694397-26.7000732-27.8232956-52.5300293-27.8232956V55.5465012z M1930.5400391,78.3992004
			L1903.6099854,90.1791l1.5999756,3.6645966l26.9300537-11.7797928L1930.5400391,78.3992004z M1906.1600342,91.0401001
			c-2.5600586-4.610199-5.9400635-8.1418991-10.1400146-10.5083008c-4.2000732-2.3625031-9.1199951-3.5022964-14.6900635-3.5022964
			v4c5.0200195,0,9.2301025,1.0238953,12.7200928,2.9885941c3.4899902,1.9610062,6.3699951,4.9202042,8.6099854,8.9645996
			L1906.1600342,91.0401001z M1881.3299561,77.0295029c-5.6799316,0-10.4299316,1.0821991-14.0699463,3.4483948l2.1799316,3.3538055
			c2.7700195-1.8009033,6.6700439-2.8022003,11.8900146-2.8022003V77.0295029z M1867.3199463,80.4397964
			c-3.6499023,2.189003-5.7799072,5.2520065-5.7799072,9.1676025h4c0-2.1746979,1.0799561-4.080101,3.8399658-5.7376022
			L1867.3199463,80.4397964z M1861.5400391,89.607399c0,3.6221008,1.75,6.6828003,4.8499756,9.1389999
			c3.0300293,2.4085999,7.4200439,4.3015976,12.9899902,5.7766037l1.0200195-3.8670044
			c-5.3300781-1.4104996-9.1099854-3.1237946-11.5300293-5.042099c-2.3499756-1.8710022-3.3299561-3.858902-3.3299561-6.0065002
			H1861.5400391z M1879.4200439,104.5339966l18.0299072,4.3270035l0.9400635-3.8889999l-18.0300293-4.3270035
			L1879.4200439,104.5339966z M1897.4399414,108.8570023c11.9700928,2.9919968,20.710083,7.5059967,26.4500732,13.3989944
			l2.8699951-2.7919998c-6.4400635-6.6079941-15.9599609-11.3899994-28.3499756-14.487999L1897.4399414,108.8570023z
			 M1923.9100342,122.2740021c5.8599854,5.8619995,8.789917,13.0399933,8.789917,21.6649933h4
			c0-9.6459961-3.3199463-17.8539963-9.9599609-24.4929962L1923.9100342,122.2740021z M1932.6999512,143.9389954
			c0,7.427002-2.1799316,13.9700012-6.5599365,19.7020111l3.1799316,2.4269867
			c4.9200439-6.447998,7.3800049-13.848999,7.3800049-22.1289978H1932.6999512z M1926.1400146,163.647995
			c-4.25,5.6040039-10.1900635,10.053009-17.9400635,13.3059998l1.5500488,3.6880035
			c8.2900391-3.4790039,14.8399658-8.326004,19.5799561-14.5809937L1926.1400146,163.647995z M1908.1899414,176.9600067
			c-7.5699463,3.2459869-16.039917,4.8859863-25.4199219,4.8859863v4c9.8599854,0,18.8699951-1.7249908,27-5.2099915
			L1908.1899414,176.9600067z"/>
	</g>
</g>
</svg>
